<?xml version="1.0" encoding="utf-8"?>
<!-- Generator: Adobe Illustrator 18.0.0, SVG Export Plug-In . SVG Version: 6.00 Build 0)  -->
<!DOCTYPE svg PUBLIC "-//W3C//DTD SVG 1.1//EN" "http://www.w3.org/Graphics/SVG/1.1/DTD/svg11.dtd">
<svg version="1.1" id="Layer_1" xmlns="http://www.w3.org/2000/svg" xmlns:xlink="http://www.w3.org/1999/xlink" x="0px" y="0px"
	 viewBox="0 0 100 97.7" style="enable-background:new 0 0 100 97.7;" xml:space="preserve">
<g>
	<path d="M87.6,38.1v29.2c0,3.4-2.8,6.2-6,6.2h-6.1l2.7,12.2H23l2.2-12.2h-6.6c-3.6,0-6.2-2.8-6.2-6.2V38.1c0-3.4,2.6-6.2,6.2-6.2
		h7.7v-9.4H29V12.2h42.1v10.3h2.7v9.4h7.8C84.8,31.9,87.6,34.7,87.6,38.1z"/>
</g>
<polygon style="fill:#FFFFFF;" points="73.1,82 69.3,62.7 30.7,62.7 27.8,82 "/>
<rect x="31.8" y="16" style="fill:#FFFFFF;" width="36.5" height="23.3"/>
<g>
	<circle cx="57.5" cy="24.9" r="3"/>
</g>
<g>
	<circle style="fill:none;stroke:#000000;stroke-width:2;stroke-miterlimit:10;" cx="42.6" cy="24.9" r="4.9"/>
</g>
<path style="fill:#FFFFFF;stroke:#000000;stroke-width:2;stroke-miterlimit:10;" d="M72.2,36.5c-0.8-0.2-2,2.9-4.9,2.9
	c-3.7,0-5.4-6.3-11.1-6.3c-4.5,0-5.9,3.6-6.2,3.6s-1.7-3.6-6.2-3.6c-5.7,0-7.4,6.3-11.1,6.3c-2.9,0-4.1-3.2-4.9-2.9
	c-0.7,0.2,1.4,10.9,11.4,10.9c6.5,0,10.3-5.2,10.8-5.2c0.5,0,4.3,5.2,10.8,5.2C70.8,47.4,72.9,36.7,72.2,36.5z"/>
<g>
	<polygon points="67.3,73.3 67,71.3 33.4,71.3 33.1,73.3 	"/>
	<polygon points="32.8,75.3 32.4,78 68.3,78 67.7,75.3 	"/>
</g>
<line style="fill:none;stroke:#000000;stroke-width:2;stroke-miterlimit:10;" x1="38.1" y1="24.9" x2="28.7" y2="24.9"/>
<circle style="fill:#FFFFFF;" cx="71.6" cy="51.3" r="1.9"/>
<circle style="fill:#FFFFFF;" cx="66.4" cy="51.3" r="1.9"/>
</svg>
